<?xml version="1.0" encoding="UTF-8"?>
<svg version="1.1" xmlns="http://www.w3.org/2000/svg" width="512" height="512">
<path d="M0 0 C1.1034375 0.350625 2.206875 0.70125 3.34375 1.0625 C30.5421571 10.56873937 51.67817839 30.59010284 64.25 56.3125 C74.61412561 79.81221656 77.25395683 108.45533889 69 133 C68.649375 134.1034375 68.29875 135.206875 67.9375 136.34375 C58.43126063 163.5421571 38.40989716 184.67817839 12.6875 197.25 C-13.54688866 208.80600678 -44.15100462 209.91150928 -70.94775391 199.6015625 C-97.52152838 188.75248811 -118.053779 168.80650806 -129.65234375 142.5078125 C-138.49251398 119.49774622 -140.95166641 92.64574486 -133 69 C-132.649375 67.8965625 -132.29875 66.793125 -131.9375 65.65625 C-122.43126063 38.4578429 -102.40989716 17.32182161 -76.6875 4.75 C-53.18778344 -5.61412561 -24.54466111 -8.25395683 0 0 Z " fill="#E63A3A" transform="translate(288,155)"/>
<path d="M0 0 C0 69.3 0 138.6 0 210 C-31.01830876 210 -55.56606036 198.98820708 -77.5546875 177.50390625 C-99.78037354 154.08618515 -105.95695128 124.88574885 -105.18359375 93.59570312 C-104.8147032 86.37094239 -103.29718865 79.83111361 -101 73 C-100.649375 71.8965625 -100.29875 70.793125 -99.9375 69.65625 C-90.43126063 42.4578429 -70.40989716 21.32182161 -44.6875 8.75 C-29.94455677 2.24789113 -16.26468316 0 0 0 Z " fill="#FF6658" transform="translate(256,151)"/>
<path d="M0 0 C1.71003563 0.46039421 3.42096234 0.9174929 5.1328125 1.37109375 C5.8767627 1.57532959 6.62071289 1.77956543 7.38720703 1.98999023 C15.5403872 3.86626182 23.74813631 3.84369043 32.0625 3.875 C32.77276337 3.87828308 33.48302673 3.88156616 34.21481323 3.88494873 C47.53466751 3.9048434 59.84938831 2.23536102 72.62109375 -1.546875 C78.17509597 -3.06705808 83.41295382 -3.50662582 88.6875 -0.875 C92.32787015 1.53780347 94.46844076 4.43491842 95.875 8.5625 C96.77664571 13.85966854 95.85607028 18.09089458 92.875 22.5625 C88.46025494 26.8059266 84.76838934 28.64935005 78.875 30.125 C77.73248779 30.42796997 77.73248779 30.42796997 76.56689453 30.73706055 C66.78864965 33.23703509 56.82534761 34.91064702 46.875 36.5625 C47.62523437 36.89121094 48.37546875 37.21992188 49.1484375 37.55859375 C62.29682858 43.66911807 71.42943385 52.02977914 76.5078125 65.7578125 C78.09116879 70.68471581 78.37508875 75.28882982 78.3125 80.4375 C78.30492676 81.31446533 78.29735352 82.19143066 78.28955078 83.0949707 C77.98353318 95.15139411 73.44451689 104.43603142 65.375 113.3125 C64.55 114.055 63.725 114.7975 62.875 115.5625 C61.946875 116.408125 61.01875 117.25375 60.0625 118.125 C49.18118899 127.02026196 36.35080573 127.73021283 22.875 126.5625 C19.14098816 125.73222092 16.15384559 124.50715122 12.875 122.5625 C12.15183594 122.15386719 11.42867187 121.74523437 10.68359375 121.32421875 C8.69038581 120.13857204 6.78202532 118.88109634 4.875 117.5625 C4.029375 117.005625 3.18375 116.44875 2.3125 115.875 C-6.69508547 107.32934199 -12.1219576 96.09832457 -12.46850586 83.7590332 C-12.64930846 68.63748828 -9.04564087 57.98974516 1.45703125 46.890625 C4.96596424 43.57805566 8.78926814 41.50621806 13.11328125 39.38671875 C14.19262939 38.85522217 15.27197754 38.32372559 16.3840332 37.77612305 C17.61706177 37.17537964 17.61706177 37.17537964 18.875 36.5625 C18.13564209 36.43721924 17.39628418 36.31193848 16.63452148 36.18286133 C-20.8645409 29.7507001 -20.8645409 29.7507001 -27 22.875 C-30.24131084 17.82236839 -30.80807091 14.51497509 -30.125 8.5625 C-28.78119657 4.40156647 -26.57280274 1.54289903 -22.9375 -0.875 C-15.51648387 -4.40842385 -7.53973355 -2.08289443 0 0 Z " fill="#FFBB99" transform="translate(223.125,385.4375)"/>
<path d="M0 0 C10.07996939 7.25901539 17.70795099 16.78841552 20.3125 29.25 C21.60902954 43.25744253 20.47577659 55.54614771 11.9375 67.1875 C6.89637076 73.10300069 2.08701843 76.98832079 -4.92578125 80.42578125 C-6.00512939 80.95727783 -7.08447754 81.48877441 -8.1965332 82.03637695 C-9.42956177 82.63712036 -9.42956177 82.63712036 -10.6875 83.25 C-9.94814209 83.37528076 -9.20878418 83.50056152 -8.44702148 83.62963867 C29.01222031 90.05496953 29.01222031 90.05496953 35.1875 96.875 C38.18626971 101.63775189 39.02868782 105.68419748 38.3125 111.25 C36.93101151 115.37782104 34.75461856 118.28182258 31.125 120.6875 C23.70325537 124.22023805 15.72787246 121.89557093 8.1875 119.8125 C6.47746437 119.35210579 4.76653766 118.8950071 3.0546875 118.44140625 C1.93876221 118.13505249 1.93876221 118.13505249 0.80029297 117.82250977 C-7.3528872 115.94623818 -15.56063631 115.96880957 -23.875 115.9375 C-24.58526337 115.93421692 -25.29552673 115.93093384 -26.02731323 115.92755127 C-39.34716751 115.9076566 -51.66188831 117.57713898 -64.43359375 121.359375 C-69.98759597 122.87955808 -75.22545382 123.31912582 -80.5 120.6875 C-84.15006424 118.25978285 -86.30874178 115.41074966 -87.6875 111.25 C-88.48868496 106.50896733 -88.19422648 103.24468531 -86 98.9375 C-81.56118572 93.778878 -77.34586824 91.45111108 -70.8125 89.75 C-70.0488916 89.5435083 -69.2852832 89.3370166 -68.49853516 89.12426758 C-58.36746152 86.49616094 -48.01757374 84.87866501 -37.6875 83.25 C-38.35426758 82.99968018 -39.02103516 82.74936035 -39.70800781 82.49145508 C-53.36202058 77.22643396 -61.12910663 69.02162319 -67.48828125 56.01953125 C-71.5659617 46.6023474 -71.36044157 32.6689522 -68.0625 23.0625 C-65.85380466 18.07335486 -62.92470544 13.6255634 -59.6875 9.25 C-59.11 8.38375 -58.5325 7.5175 -57.9375 6.625 C-42.5376748 -9.63037104 -18.65607774 -11.55351007 0 0 Z " fill="#FFD8B2" transform="translate(280.6875,6.75)"/>
<path d="M0 0 C4.63267078 2.194423 6.67537181 4.51491227 9 9 C12.23749978 24.25891369 2.95709801 43.24797586 -3 57 C-2.071875 56.113125 -1.14375 55.22625 -0.1875 54.3125 C10.6013148 45.02090848 22.96606737 44.18116088 36.52978516 44.78222656 C47.45460813 45.74535585 56.63253857 52.02971353 63.80859375 60.01171875 C73.1007627 71.80651674 75.25896778 84.32742258 74 99 C72.04632296 109.93069939 65.62448247 119.84572846 56.9140625 126.7265625 C45.0033792 134.65081302 32.9760384 136.22221586 19 135 C11.41987352 133.45231756 5.05214635 129.72895846 -1 125 C-1.61617188 124.52175781 -2.23234375 124.04351562 -2.8671875 123.55078125 C-10.16406725 117.11331179 -15.36153148 106.29298621 -16.8671875 96.73046875 C-17.15561469 90.80074506 -16.58191343 84.89777128 -16 79 C-16.65484375 79.85980469 -17.3096875 80.71960938 -17.984375 81.60546875 C-40.79329348 111.26763225 -40.79329348 111.26763225 -51.5625 113.0625 C-56.01604018 113.26179784 -59.13251759 112.30561452 -63 110 C-67.70162576 105.52980142 -69.0710175 101.67101166 -69.328125 95.23046875 C-68.32839649 88.43469519 -63.74241485 84.51275612 -59 80.0625 C-40.06427443 61.61639331 -29.32131065 39.53247859 -22.23193359 14.26220703 C-21.97879395 13.37259277 -21.7256543 12.48297852 -21.46484375 11.56640625 C-21.24304443 10.76275635 -21.02124512 9.95910645 -20.79272461 9.13110352 C-17.29814663 -0.26346723 -8.59837267 -0.92125421 0 0 Z " fill="#FEBB99" transform="translate(409,271)"/>
<path d="M0 0 C4.66241935 2.20851443 6.68755821 4.48211886 9 9 C10.0522799 12.23528442 10.89125152 15.52141884 11.75 18.8125 C18.53836728 43.54155222 30.88117896 65.00560889 49.67260742 82.56274414 C53.50267875 86.20430554 56.39197856 89.75721899 57.3984375 95.125 C57.32037674 101.36986111 55.71222685 105.16547124 51.375 109.8125 C47.67681142 112.6480838 43.60144033 113.47118749 39 113 C26.97212328 108.82117197 18.53647003 97.79453453 11 88 C10.30390625 87.11183594 9.6078125 86.22367187 8.890625 85.30859375 C7.25080154 83.21289936 5.62066869 81.11051711 4 79 C4.16048828 80.27230469 4.16048828 80.27230469 4.32421875 81.5703125 C5.80995515 96.10816334 3.22985235 108.73210285 -5.8984375 120.43359375 C-12.56793942 127.78492208 -22.91600217 134.28734212 -33.0078125 135.17700195 C-49.24372131 135.64692966 -61.70435002 133.67228055 -74 122.12109375 C-83.73913522 111.73128355 -86.71984145 99.51225247 -86.37109375 85.65234375 C-85.72580313 74.46194802 -80.97803702 64.82853377 -73 57 C-60.74592278 46.28930428 -49.15210395 43.78372841 -33.26708984 44.77246094 C-24.54963878 45.64739787 -17.96147279 50.02751944 -11 55 C-10.34 55.33 -9.68 55.66 -9 56 C-9.44730469 54.98164063 -9.89460938 53.96328125 -10.35546875 52.9140625 C-23.37937583 22.681411 -23.37937583 22.681411 -21 9 C-16.63929544 -0.20593186 -9.3488659 -1.1401056 0 0 Z " fill="#FED9B3" transform="translate(115,271)"/>
<path d="M0 0 C11.26642846 7.37040305 18.18471977 17.35033347 21.296875 30.45703125 C22.85177087 44.90124077 20.64157058 57.26258859 11.5625 68.9140625 C4.28828438 77.07874245 -4.04124307 82.08402211 -14.703125 84.45703125 C-31.29058925 85.30432805 -41.79307314 82.73039916 -55.703125 73.45703125 C-55.25582031 74.47539062 -54.80851562 75.49375 -54.34765625 76.54296875 C-41.32374917 106.77562025 -41.32374917 106.77562025 -43.703125 120.45703125 C-45.88956199 125.07284267 -48.19912304 127.1856721 -52.703125 129.45703125 C-58.25121104 130.28588394 -63.17453383 130.18110075 -68.265625 127.76953125 C-73.42660663 122.87321534 -74.71260775 117.31491687 -76.453125 110.64453125 C-83.24149228 85.91547903 -95.58430396 64.45142236 -114.37573242 46.89428711 C-118.28913119 43.17349952 -121.12327711 39.59134415 -122.13671875 34.11328125 C-122.14885746 27.41271307 -120.1418332 24.03509421 -115.515625 19.14453125 C-111.71003872 16.86117948 -108.13444312 16.07261091 -103.703125 16.45703125 C-91.6777471 20.61649415 -83.23205039 31.67230188 -75.703125 41.45703125 C-75.00703125 42.34519531 -74.3109375 43.23335937 -73.59375 44.1484375 C-71.95392654 46.24413189 -70.32379369 48.34651414 -68.703125 50.45703125 C-68.81011719 49.52503906 -68.91710937 48.59304687 -69.02734375 47.6328125 C-70.39554944 33.08275419 -67.98519261 20.80684646 -58.8046875 9.01953125 C-44.06737499 -7.19699106 -18.94934758 -10.81646285 0 0 Z " fill="#FEBB99" transform="translate(461.703125,111.54296875)"/>
<path d="M0 0 C2.30626009 1.43852009 4.44474557 2.97147064 6.5859375 4.64453125 C7.20210938 5.12277344 7.81828125 5.60101563 8.453125 6.09375 C16.08283812 12.82485246 21.05207505 23.78651019 22.453125 33.7578125 C22.71352707 39.41772798 22.19352607 45.02023168 21.5859375 50.64453125 C22.24078125 49.78472656 22.895625 48.92492187 23.5703125 48.0390625 C46.37923098 18.376899 46.37923098 18.376899 57.1484375 16.58203125 C61.60197768 16.38273341 64.71845509 17.33891673 68.5859375 19.64453125 C73.23985152 24.06936661 74.63654895 27.9514566 75.01171875 34.31640625 C73.71458069 41.40901438 68.55086546 45.89948611 63.5234375 50.58203125 C44.19710617 69.30866066 32.90907496 93.78021275 26.73828125 119.69140625 C24.90102672 124.39976023 21.71436542 126.89224597 17.5859375 129.64453125 C12.03195527 130.33377003 7.11483605 130.36874635 2.0234375 127.95703125 C-1.0121543 125.07711083 -3.03818456 122.41611098 -3.91796875 118.26953125 C-4.26716143 102.62569933 2.45672102 86.7938927 8.5859375 72.64453125 C8.1734375 73.03125 7.7609375 73.41796875 7.3359375 73.81640625 C-3.71423617 83.78129501 -15.81912617 85.56680147 -30.25195312 84.83544922 C-41.34065043 83.85629821 -50.74932324 77.80882745 -58.2265625 69.83203125 C-67.42467204 58.63810548 -69.67864823 45.73609147 -68.4140625 31.64453125 C-66.18989871 19.2185144 -59.75272174 8.93365791 -49.4140625 1.64453125 C-34.12532928 -7.3940909 -15.68405676 -8.80642022 0 0 Z " fill="#FED9B3" transform="translate(97.4140625,111.35546875)"/>
<path d="M0 0 C4.63267078 2.194423 6.67537181 4.51491227 9 9 C13.39411654 29.71025471 -2.30964133 57.03743827 -13 74 C-35.96263096 109.14728845 -35.96263096 109.14728845 -51 113 C-56.0749923 113.41218212 -59.96056265 112.46469103 -63.9375 109.25 C-68.36523746 104.92475647 -69.19804785 101.35005349 -69.36328125 95.16015625 C-68.22742425 88.40608183 -63.74386911 84.51412079 -59 80.0625 C-40.06427443 61.61639331 -29.32131065 39.53247859 -22.23193359 14.26220703 C-21.97879395 13.37259277 -21.7256543 12.48297852 -21.46484375 11.56640625 C-21.24304443 10.76275635 -21.02124512 9.95910645 -20.79272461 9.13110352 C-17.29814663 -0.26346723 -8.59837267 -0.92125421 0 0 Z " fill="#58ABFE" transform="translate(409,271)"/>
<path d="M0 0 C15.80911117 12.50706506 28.36739287 29.39626502 37.35546875 47.34765625 C37.97808594 48.49878906 38.60070312 49.64992187 39.2421875 50.8359375 C47.30208593 65.9567174 55.05807345 83.89595808 53.35546875 101.34765625 C51.16903176 105.96346767 48.85947071 108.0762971 44.35546875 110.34765625 C38.80738271 111.17650894 33.88405992 111.07172575 28.79296875 108.66015625 C23.63198712 103.76384034 22.345986 98.20554187 20.60546875 91.53515625 C13.81710147 66.80610403 1.47428979 45.34204736 -17.31713867 27.78491211 C-21.23053744 24.06412452 -24.06468336 20.48196915 -25.078125 15.00390625 C-25.08787189 9.62362097 -24.27587337 6.56786466 -20.64453125 2.34765625 C-14.50243681 -3.33378111 -7.30234328 -4.56261626 0 0 Z " fill="#58ABFE" transform="translate(364.64453125,130.65234375)"/>
<path d="M0 0 C4.66241935 2.20851443 6.68755821 4.48211886 9 9 C10.0522799 12.23528442 10.89125152 15.52141884 11.75 18.8125 C18.53836728 43.54155222 30.88117896 65.00560889 49.67260742 82.56274414 C53.50267875 86.20430554 56.39197856 89.75721899 57.3984375 95.125 C57.32037674 101.36986111 55.71222685 105.16547124 51.375 109.8125 C47.67681142 112.6480838 43.60144033 113.47118749 39 113 C27.05245314 108.84908086 18.4021617 97.82184901 11 88 C10.58476074 87.44908691 10.16952148 86.89817383 9.74169922 86.33056641 C4.15488722 78.86271506 -0.77755929 71.3340562 -5 63 C-5.62519531 61.845 -6.25039062 60.69 -6.89453125 59.5 C-14.94857416 44.37998548 -22.70227819 26.44835143 -21 9 C-16.63929544 -0.20593186 -9.3488659 -1.1401056 0 0 Z " fill="#65CCFE" transform="translate(115,271)"/>
<path d="M0 0 C3.64923211 2.18401013 6.23950877 4.74353623 8.4375 8.375 C9.79398231 14.70525079 9.67911057 18.56499537 6.31542969 24.15722656 C3.93335506 27.49425316 0.92682558 30.1532429 -2.0625 32.9375 C-21.38883133 51.66412941 -32.67686254 76.1356815 -38.84765625 102.046875 C-40.68491078 106.75522898 -43.87157208 109.24771472 -48 112 C-53.55398223 112.68923878 -58.47110145 112.7242151 -63.5625 110.3125 C-66.5980918 107.43257958 -68.62412206 104.77157973 -69.50390625 100.625 C-70.2402816 67.63538441 -46.59941195 33.10517482 -25 10 C-17.62353744 2.53003298 -10.95122258 -3.27015674 0 0 Z " fill="#65CCFE" transform="translate(163,129)"/>
<path d="M0 0 C1.71003563 0.46039421 3.42096234 0.9174929 5.1328125 1.37109375 C5.8767627 1.57532959 6.62071289 1.77956543 7.38720703 1.98999023 C15.5403872 3.86626182 23.74813631 3.84369043 32.0625 3.875 C32.77276337 3.87828308 33.48302673 3.88156616 34.21481323 3.88494873 C47.53466751 3.9048434 59.84938831 2.23536102 72.62109375 -1.546875 C78.17509597 -3.06705808 83.41295382 -3.50662582 88.6875 -0.875 C92.32787015 1.53780347 94.46844076 4.43491842 95.875 8.5625 C96.77664571 13.85966854 95.85607028 18.09089458 92.875 22.5625 C88.40553792 26.87761129 84.60588405 28.69585996 78.625 30.1875 C77.82690918 30.39205811 77.02881836 30.59661621 76.20654297 30.80737305 C73.76765182 31.41553521 71.32265011 31.99077504 68.875 32.5625 C67.87871582 32.81459229 67.87871582 32.81459229 66.86230469 33.07177734 C45.36108169 38.40014925 18.30432259 37.94978898 -3.125 32.5625 C-3.8998877 32.38557617 -4.67477539 32.20865234 -5.47314453 32.02636719 C-7.92793938 31.46402249 -10.37054589 30.86557077 -12.8125 30.25 C-13.5442041 30.07380127 -14.2759082 29.89760254 -15.02978516 29.71606445 C-21.01095442 28.07141617 -26.15806905 25.01742137 -29.2980957 19.50195312 C-31.05108143 15.39043302 -30.84673644 10.77524886 -29.47265625 6.5625 C-23.36609031 -5.59821501 -11.03104688 -3.04738966 0 0 Z " fill="#65CCFF" transform="translate(223.125,385.4375)"/>
<path d="M0 0 C0.76119141 0.18723633 1.52238281 0.37447266 2.30664062 0.56738281 C10.37224773 2.6319215 16.40724164 4.70561908 21 12 C22.45320819 16.35962456 22.81697376 20.55892177 21.3515625 24.9375 C18.99081799 29.6186344 15.92871211 32.25808122 11 34 C4.35048576 34.79817069 -1.75415847 33.32248134 -8.125 31.5625 C-9.83503563 31.10210579 -11.54596234 30.6450071 -13.2578125 30.19140625 C-14.0017627 29.98717041 -14.74571289 29.78293457 -15.51220703 29.57250977 C-23.6653872 27.69623818 -31.87313631 27.71880957 -40.1875 27.6875 C-40.89776337 27.68421692 -41.60802673 27.68093384 -42.33981323 27.67755127 C-55.65966751 27.6576566 -67.97438831 29.32713898 -80.74609375 33.109375 C-86.30009597 34.62955808 -91.53795382 35.06912582 -96.8125 32.4375 C-100.46256424 30.00978285 -102.62124178 27.16074966 -104 23 C-104.80118496 18.25896733 -104.50672648 14.99468531 -102.3125 10.6875 C-97.69619293 5.3226026 -93.50434093 3.16268396 -86.8125 1.4375 C-86.00989746 1.22843018 -85.20729492 1.01936035 -84.38037109 0.80395508 C-81.92491041 0.18155565 -79.46382639 -0.41171407 -77 -1 C-76.33436035 -1.16951172 -75.6687207 -1.33902344 -74.98291016 -1.51367188 C-51.60035748 -7.30375171 -23.18010635 -5.87651166 0 0 Z " fill="#65CCFF" transform="translate(297,95)"/>
<path d="M0 0 C0 30.03 0 60.06 0 91 C-11.7844595 91 -18.52826167 88.5491524 -28 82 C-28.845625 81.443125 -29.69125 80.88625 -30.5625 80.3125 C-39.57008547 71.76684199 -44.9969576 60.53582457 -45.34350586 48.1965332 C-45.52430846 33.07498828 -41.92064087 22.42724516 -31.41796875 11.328125 C-22.39838296 2.81328489 -12.13310003 0 0 0 Z " fill="#FFD9B3" transform="translate(256,421)"/>
<path d="M0 0 C13.66432452 0 23.05419805 4.45367503 33.125 13.5 C43.29442859 24.01588207 45.57349143 36.83167328 45.33984375 50.859375 C44.79526852 63.19705449 38.60027981 72.89149375 29.8125 81.1875 C20.67469088 88.62235378 11.63983035 91 0 91 C0 60.97 0 30.94 0 0 Z " fill="#FFBB99" transform="translate(256,0)"/>
<path d="M0 0 C3.26036693 2.86337925 5.12201413 6.05765332 5.8515625 10.34375 C6.06883385 15.07845487 5.11091511 18.41956483 2.5078125 22.32421875 C-1.9628761 26.6405142 -5.76099874 28.45457396 -11.7421875 29.94921875 C-12.91974609 30.25605591 -12.91974609 30.25605591 -14.12109375 30.5690918 C-28.75496887 34.26402857 -42.3969911 35.68362819 -57.4921875 35.32421875 C-57.4921875 25.09421875 -57.4921875 14.86421875 -57.4921875 4.32421875 C-54.1096875 4.09734375 -50.7271875 3.87046875 -47.2421875 3.63671875 C-38.28208608 2.94792459 -29.85595715 1.52300632 -21.22949219 -0.9987793 C-13.97782731 -3.06660065 -6.61904135 -4.38703903 0 0 Z " fill="#59ABFF" transform="translate(313.4921875,385.67578125)"/>
<path d="M0 0 C17.25078483 -0.77531617 44.02431711 -0.60174221 58.20703125 10.76953125 C62.13124211 15.1348712 63.38032271 19.06044447 63.2734375 24.875 C62.71305867 29.22994409 60.77237128 32.44343559 57.4921875 35.32421875 C52.29805701 38.76684012 46.73784474 38.7358793 40.75170898 37.55737305 C38.42596226 36.95221594 36.11995906 36.29641448 33.8125 35.625 C23.56044733 32.82212545 13.40015985 31.84452197 2.81567383 31.21777344 C1 31 1 31 0 30 C-0.08783542 27.78144736 -0.10694609 25.56011504 -0.09765625 23.33984375 C-0.0962413 22.67537735 -0.09482635 22.01091095 -0.09336853 21.3263092 C-0.08775518 19.19666101 -0.07520054 17.06711661 -0.0625 14.9375 C-0.05748671 13.49674631 -0.05292351 12.05599097 -0.04882812 10.61523438 C-0.03778145 7.07678898 -0.02050792 3.53840461 0 0 Z " fill="#59ABFF" transform="translate(256,91)"/>
</svg>
